<?xml version="1.0" encoding="iso-8859-1"?>
<!-- Generator: Adobe Illustrator 19.0.0, SVG Export Plug-In . SVG Version: 6.00 Build 0)  -->
<svg version="1.1" id="Capa_1" xmlns="http://www.w3.org/2000/svg" xmlns:xlink="http://www.w3.org/1999/xlink" x="0px" y="0px"
	 viewBox="0 0 496 496" style="enable-background:new 0 0 496 496;" xml:space="preserve">
<g>
	<g>
		<g>
			<path d="M160,264c-13.232,0-24-10.768-24-24h-16c0,22.056,17.944,40,40,40c22.056,0,40-17.944,40-40h-16
				C184,253.232,173.232,264,160,264z"/>
			<path d="M336,280c22.056,0,40-17.944,40-40h-16c0,13.232-10.768,24-24,24s-24-10.768-24-24h-16C296,262.056,313.944,280,336,280z
				"/>
			<path d="M432,184.64V176c0-10.968-9.52-20-29.104-27.608l-5.8,14.904C412.608,169.328,416,174.504,416,176
				c0,10.856-59.296,32-168,32S80,186.856,80,176c0-1.496,3.392-6.672,18.896-12.704l-5.8-14.904C73.52,156,64,165.032,64,176v8.64
				c-27.096,3.904-48,27.208-48,55.36c0,28.216,21,51.568,48.184,55.392C66.96,365.048,108.6,424.872,168,453.672V496h16v-35.496
				C203.944,467.928,225.504,472,248,472c22.496,0,44.056-4.072,64-11.496V496h16v-42.328c59.4-28.8,101.04-88.624,103.816-158.288
				C459,291.568,480,268.216,480,240C480,211.848,459.096,188.544,432,184.64z M64,279.192c-18.232-3.72-32-19.88-32-39.192
				s13.768-35.472,32-39.192V279.192z M416,288c0,92.632-75.36,168-168,168S80,380.632,80,288v-90.584
				C114.856,217.936,198.544,224,248,224s133.144-6.064,168-26.584V288z M432,279.192v-78.384c18.232,3.72,32,19.872,32,39.192
				S450.232,275.472,432,279.192z"/>
			<path d="M72,80c1.728,0,3.408-0.2,5.032-0.552l40.36,65.584c-3.32,4.112-5.392,9.28-5.392,14.968c0,13.232,10.768,24,24,24
				c10,0,18.568-6.152,22.168-14.864l66.248,11.04C226.416,191.416,236.2,200,248,200c11.616,0,21.32-8.296,23.52-19.28
				l67.328-9.616C342.88,178.736,350.792,184,360,184c13.232,0,24-10.768,24-24c0-4.288-1.224-8.256-3.2-11.744l34.472-45.96
				c2.712,1.072,5.64,1.704,8.728,1.704c13.232,0,24-10.768,24-24s-10.768-24-24-24c-4.648,0-8.952,1.384-12.624,3.68
				l-44.752-27.976C367.448,29.272,368,26.712,368,24c0-13.232-10.768-24-24-24c-10.64,0-19.576,7-22.712,16.608L181.696,29.904
				C177.872,21.72,169.616,16,160,16c-11.92,0-21.76,8.76-23.616,20.16L92.72,44.104C88.568,36.912,80.888,32,72,32
				c-13.232,0-24,10.768-24,24S58.768,80,72,80z M424,72c4.408,0,8,3.584,8,8s-3.592,8-8,8c-4.408,0-8-3.584-8-8S419.592,72,424,72z
				 M136,168c-4.408,0-8-3.584-8-8s3.592-8,8-8s8,3.584,8,8S140.408,168,136,168z M248,184c-4.408,0-8-3.584-8-8s3.592-8,8-8
				s8,3.584,8,8S252.408,184,248,184z M269.144,164.896C265.12,157.264,257.208,152,248,152c-9.008,0-16.776,5.048-20.88,12.408
				l-61.536-10.256l43.728-21.864C218.048,144.216,232.112,152,248,152s29.952-7.784,38.688-19.712l46.824,23.416L269.144,164.896z
				 M216,104c0-17.648,14.352-32,32-32s32,14.352,32,32s-14.352,32-32,32S216,121.648,216,104z M360,168c-4.408,0-8-3.584-8-8
				s3.592-8,8-8c4.408,0,8,3.584,8,8S364.408,168,360,168z M344,16c4.408,0,8,3.584,8,8s-3.592,8-8,8c-4.408,0-8-3.584-8-8
				S339.592,16,344,16z M332.696,45.048C336.08,46.864,339.896,48,344,48c4.648,0,8.952-1.384,12.624-3.68l44.76,27.976
				C400.552,74.728,400,77.288,400,80c0,4.288,1.224,8.256,3.2,11.744l-34.472,45.96c-2.712-1.072-5.64-1.704-8.728-1.704
				c-6.456,0-12.296,2.592-16.616,6.752l-49.48-24.744C295.256,113.576,296,108.872,296,104c0-8.64-2.328-16.736-6.344-23.744
				L332.696,45.048z M160,32c4.408,0,8,3.584,8,8s-3.592,8-8,8s-8-3.584-8-8S155.592,32,160,32z M163.432,63.656
				c9.656-1.4,17.424-8.512,19.768-17.832L321.672,32.64c0.072,0.192,0.104,0.408,0.184,0.592L279.504,67.88
				C271.064,60.504,260.064,56,248,56c-26.472,0-48,21.528-48,48c0,4.872,0.744,9.576,2.096,14.008l-49.48,24.744
				c-1.312-1.264-2.784-2.328-4.352-3.272L163.432,63.656z M95.608,59.832l43.664-7.944c2.056,3.56,4.952,6.52,8.464,8.632
				l-15.168,75.824c-0.536,0.08-1.088,0.096-1.608,0.208L90.6,70.968C93.152,67.8,94.928,64.024,95.608,59.832z M72,48
				c4.408,0,8,3.584,8,8s-3.592,8-8,8s-8-3.584-8-8S67.592,48,72,48z"/>
		</g>
	</g>
</g>
<g>
</g>
<g>
</g>
<g>
</g>
<g>
</g>
<g>
</g>
<g>
</g>
<g>
</g>
<g>
</g>
<g>
</g>
<g>
</g>
<g>
</g>
<g>
</g>
<g>
</g>
<g>
</g>
<g>
</g>
</svg>
