<?xml version="1.0" encoding="iso-8859-1"?>
<!-- Generator: Adobe Illustrator 19.0.0, SVG Export Plug-In . SVG Version: 6.00 Build 0)  -->
<svg version="1.1" id="Capa_1" xmlns="http://www.w3.org/2000/svg" xmlns:xlink="http://www.w3.org/1999/xlink" x="0px" y="0px"
	 viewBox="0 0 496 496" style="enable-background:new 0 0 496 496;" xml:space="preserve">
<g>
	<g>
		<g>
			<path d="M160,264c-13.232,0-24-10.768-24-24h-16c0,22.056,17.944,40,40,40c22.056,0,40-17.944,40-40h-16
				C184,253.232,173.232,264,160,264z"/>
			<path d="M336,280c22.056,0,40-17.944,40-40h-16c0,13.232-10.768,24-24,24s-24-10.768-24-24h-16C296,262.056,313.944,280,336,280z
				"/>
			<path d="M432,184.64V176c0-16.912-23.728-29.936-70.52-38.72L358.528,153C406.24,161.96,416,173.424,416,176
				c0,10.856-59.296,32-168,32S80,186.856,80,176c0-2.576,9.76-14.04,57.48-23l-2.952-15.72C87.728,146.064,64,159.088,64,176v8.64
				c-27.088,3.904-48,27.208-48,55.36c0,28.216,21.008,51.568,48.184,55.392C66.96,365.048,108.6,424.88,168,453.672V496h16v-35.496
				C203.944,467.928,225.504,472,248,472c22.496,0,44.056-4.072,64-11.496V496h16v-42.328c59.4-28.8,101.04-88.624,103.816-158.288
				C458.992,291.568,480,268.216,480,240C480,211.848,459.088,188.544,432,184.64z M64,279.192c-18.232-3.72-32-19.88-32-39.192
				s13.768-35.472,32-39.192V279.192z M416,288c0,92.632-75.368,168-168,168S80,380.632,80,288v-90.584
				C114.856,217.936,198.544,224,248,224s133.144-6.064,168-26.584V288z M432,279.192v-78.384c18.232,3.72,32,19.872,32,39.192
				S450.232,275.472,432,279.192z"/>
			<path d="M152,152c0,13.232,10.768,24,24,24s24-10.768,24-24s-10.768-24-24-24c-0.392,0-0.76,0.096-1.144,0.112
				C170.392,117.992,168,107.232,168,96c0-44.112,35.888-80,80-80c11.648,0,22.872,2.448,33.36,7.256l6.688-14.528
				C275.448,2.936,261.976,0,248,0c-52.936,0-96,43.064-96,96c0,13.352,2.816,26.136,8.072,38.184
				C155.16,138.584,152,144.904,152,152z M176,144c4.416,0,8,3.584,8,8s-3.584,8-8,8s-8-3.584-8-8S171.584,144,176,144z"/>
			<path d="M320,64c0.392,0,0.76-0.096,1.144-0.112C325.608,74.008,328,84.768,328,96c0,44.112-35.888,80-80,80
				c-11.648,0-22.872-2.448-33.36-7.256l-6.688,14.528C220.552,189.064,234.024,192,248,192c52.936,0,96-43.064,96-96
				c0-13.352-2.816-26.136-8.072-38.184C340.84,53.416,344,47.096,344,40c0-13.232-10.768-24-24-24s-24,10.768-24,24
				S306.768,64,320,64z M320,32c4.416,0,8,3.584,8,8s-3.584,8-8,8c-4.416,0-8-3.584-8-8S315.584,32,320,32z"/>
			<path d="M280,96c0-17.648-14.352-32-32-32s-32,14.352-32,32s14.352,32,32,32S280,113.648,280,96z M232,96c0-8.824,7.176-16,16-16
				c8.824,0,16,7.176,16,16s-7.176,16-16,16C239.176,112,232,104.824,232,96z"/>
		</g>
	</g>
</g>
<g>
</g>
<g>
</g>
<g>
</g>
<g>
</g>
<g>
</g>
<g>
</g>
<g>
</g>
<g>
</g>
<g>
</g>
<g>
</g>
<g>
</g>
<g>
</g>
<g>
</g>
<g>
</g>
<g>
</g>
</svg>
